<svg width="60" height="60" viewBox="0 0 60 60" fill="none" xmlns="http://www.w3.org/2000/svg">
<rect x="1.5" y="1.5" width="57" height="57" fill="#C2B280" stroke="#182828" stroke-width="3"/>
<path d="M20.5938 35.7528C20.66 34.7206 20.9394 33.8494 21.4318 33.1392C21.9242 32.4195 22.5587 31.875 23.3352 31.5057C24.1117 31.1364 24.9593 30.9564 25.8778 30.9659C26.8532 30.9754 27.7055 31.1742 28.4347 31.5625C29.1733 31.9413 29.9072 32.41 30.6364 32.9688C31.2424 33.4233 31.7917 33.7879 32.2841 34.0625C32.7765 34.3277 33.34 34.465 33.9744 34.4744C34.9025 34.4744 35.6884 34.1856 36.3324 33.608C36.9858 33.0208 37.3835 32.2396 37.5256 31.2642L39.1591 31.4205C39.036 32.4337 38.7282 33.2907 38.2358 33.9915C37.7434 34.6828 37.1278 35.2083 36.3892 35.5682C35.6506 35.9186 34.8504 36.0938 33.9886 36.0938C33.108 36.0938 32.3267 35.9138 31.6449 35.554C30.9631 35.1847 30.2623 34.7206 29.5426 34.1619C28.9271 33.7074 28.3447 33.3333 27.7955 33.0398C27.2557 32.7462 26.6259 32.5994 25.9062 32.5994C24.893 32.59 24.0455 32.8693 23.3636 33.4375C22.6913 34.0057 22.3125 34.8059 22.2273 35.8381L20.5938 35.7528Z" fill="#182828"/>
<path d="M20.5938 35.7528L19.5958 35.6888L19.5309 36.6987L20.5416 36.7515L20.5938 35.7528ZM21.4318 33.1392L22.2536 33.709L22.2571 33.7039L21.4318 33.1392ZM25.8778 30.9659L25.8675 31.9659L25.8681 31.9659L25.8778 30.9659ZM28.4347 31.5625L27.9647 32.4452L27.9715 32.4488L27.9783 32.4523L28.4347 31.5625ZM30.6364 32.9688L30.0281 33.7626L30.0364 33.7688L30.6364 32.9688ZM32.2841 34.0625L31.797 34.9359L31.8035 34.9395L31.81 34.943L32.2841 34.0625ZM33.9744 34.4744L33.9595 35.4743L33.967 35.4744H33.9744V34.4744ZM36.3324 33.608L37.0001 34.3523L37.0008 34.3518L36.3324 33.608ZM37.5256 31.2642L37.6208 30.2687L36.6732 30.1781L36.536 31.1201L37.5256 31.2642ZM39.1591 31.4205L40.1518 31.5411L40.2755 30.5227L39.2543 30.425L39.1591 31.4205ZM38.2358 33.9915L39.0503 34.5717L39.054 34.5664L38.2358 33.9915ZM36.3892 35.5682L36.8178 36.4717L36.8272 36.4672L36.3892 35.5682ZM31.6449 35.554L31.1686 36.4333L31.1781 36.4384L31.6449 35.554ZM29.5426 34.1619L30.1558 33.372L30.1463 33.3646L30.1367 33.3575L29.5426 34.1619ZM27.7955 33.0398L27.3177 33.9183L27.3241 33.9217L27.7955 33.0398ZM25.9062 32.5994L25.8969 33.5994H25.9062V32.5994ZM23.3636 33.4375L22.7234 32.6693L22.7182 32.6737L23.3636 33.4375ZM22.2273 35.8381L22.1752 36.8367L23.144 36.8873L23.2239 35.9204L22.2273 35.8381ZM21.5917 35.8169C21.6486 34.9303 21.8835 34.2428 22.2536 33.709L20.61 32.5694C19.9953 33.4561 19.6714 34.511 19.5958 35.6888L21.5917 35.8169ZM22.2571 33.7039C22.6513 33.1278 23.1501 32.7011 23.7647 32.4087L22.9057 30.6026C21.9674 31.0489 21.1972 31.7112 20.6065 32.5745L22.2571 33.7039ZM23.7647 32.4087C24.3946 32.1092 25.0904 31.9578 25.8675 31.9659L25.8882 29.966C24.8281 29.955 23.8288 30.1636 22.9057 30.6026L23.7647 32.4087ZM25.8681 31.9659C26.7119 31.9741 27.4008 32.1449 27.9647 32.4452L28.9047 30.6798C28.0102 30.2035 26.9946 29.9767 25.8875 29.966L25.8681 31.9659ZM27.9783 32.4523C28.6583 32.801 29.3417 33.2365 30.0281 33.7625L31.2446 32.175C30.4727 31.5836 29.6883 31.0816 28.891 30.6727L27.9783 32.4523ZM30.0364 33.7688C30.667 34.2417 31.2546 34.6334 31.797 34.9359L32.7712 33.1891C32.3287 32.9424 31.8178 32.6048 31.2364 32.1687L30.0364 33.7688ZM31.81 34.943C32.4617 35.2939 33.1864 35.4628 33.9595 35.4743L33.9894 33.4745C33.4935 33.4671 33.0913 33.3614 32.7582 33.182L31.81 34.943ZM33.9744 35.4744C35.1294 35.4744 36.1587 35.1072 37.0001 34.3523L35.6646 32.8636C35.2182 33.264 34.6755 33.4744 33.9744 33.4744V35.4744ZM37.0008 34.3518C37.8493 33.5893 38.3438 32.585 38.5151 31.4083L36.536 31.1201C36.4233 31.8942 36.1223 32.4524 35.664 32.8641L37.0008 34.3518ZM37.4304 32.2597L39.0639 32.4159L39.2543 30.425L37.6208 30.2687L37.4304 32.2597ZM38.1664 31.2998C38.0594 32.1809 37.7987 32.8741 37.4176 33.4165L39.054 34.5664C39.6577 33.7073 40.0126 32.6866 40.1518 31.5411L38.1664 31.2998ZM37.4213 33.4113C37.0225 33.9712 36.5346 34.385 35.9512 34.6692L36.8272 36.4672C37.721 36.0317 38.4643 35.3943 39.0503 34.5717L37.4213 33.4113ZM35.9606 34.6647C35.3631 34.9481 34.7103 35.0938 33.9886 35.0938V37.0938C34.9904 37.0938 35.938 36.889 36.8178 36.4717L35.9606 34.6647ZM33.9886 35.0938C33.2473 35.0938 32.6303 34.9433 32.1116 34.6696L31.1781 36.4384C32.0231 36.8843 32.9686 37.0938 33.9886 37.0938V35.0938ZM32.1212 34.6747C31.4948 34.3354 30.8397 33.9029 30.1558 33.372L28.9294 34.9518C29.685 35.5384 30.4313 36.0339 31.1686 36.4333L32.1212 34.6747ZM30.1367 33.3575C29.4906 32.8804 28.8671 32.4787 28.2668 32.1578L27.3241 33.9217C27.8223 34.188 28.3636 34.5344 28.9486 34.9664L30.1367 33.3575ZM28.2732 32.1613C27.5635 31.7753 26.7642 31.5994 25.9062 31.5994V33.5994C26.4877 33.5994 26.9478 33.7171 27.3177 33.9183L28.2732 32.1613ZM25.9156 31.5995C24.7009 31.5881 23.6131 31.9279 22.7235 32.6693L24.0038 34.2057C24.4778 33.8107 25.0851 33.5918 25.8969 33.5994L25.9156 31.5995ZM22.7182 32.6737C21.8073 33.4435 21.3336 34.5092 21.2307 35.7558L23.2239 35.9204C23.2914 35.1026 23.5753 34.5679 24.0091 34.2013L22.7182 32.6737ZM22.2794 34.8394L20.6459 34.7542L20.5416 36.7515L22.1752 36.8367L22.2794 34.8394Z" fill="#182828"/>
</svg>
