<svg xmlns="http://www.w3.org/2000/svg" version="1.1" xmlns:xlink="http://www.w3.org/1999/xlink" xmlns:svgjs="http://svgjs.dev/svgjs" width="2000" height="1247" viewBox="0 0 2000 1247"><g transform="matrix(1,0,0,1,-1.2121212121212466,0.504858299595071)"><svg viewBox="0 0 396 247" data-background-color="#182828" preserveAspectRatio="xMidYMid meet" height="1247" width="2000" xmlns="http://www.w3.org/2000/svg" xmlns:xlink="http://www.w3.org/1999/xlink"><g id="tight-bounds" transform="matrix(1,0,0,1,0.2400000000000091,-0.09999999999999432)"><svg viewBox="0 0 395.52 247.2" height="247.2" width="395.52"><g><svg></svg></g><g><svg viewBox="0 0 395.52 247.2" height="247.2" width="395.52"><g transform="matrix(1,0,0,1,75.54432,64.16787773308958)"><svg viewBox="0 0 244.43135999999998 118.86424453382082" height="118.86424453382082" width="244.43135999999998"><g><svg viewBox="0 0 244.43135999999998 118.86424453382082" height="118.86424453382082" width="244.43135999999998"><g><svg viewBox="0 0 244.43135999999998 118.86424453382082" height="118.86424453382082" width="244.43135999999998"><g><svg viewBox="0 0 244.43135999999998 118.86424453382082" height="118.86424453382082" width="244.43135999999998"><g id="textblocktransform"><svg viewBox="0 0 244.43135999999998 118.86424453382082" height="118.86424453382082" width="244.43135999999998" id="textblock"><g><svg viewBox="0 0 244.43135999999998 118.86424453382082" height="118.86424453382082" width="244.43135999999998"><g transform="matrix(1,0,0,1,0,0)"><svg width="244.43135999999998" viewBox="-0.85 -35.15 82.05 39.9" height="118.86424453382082" data-palette-color="#3498db"><path d="M39.55-21.4L39.55-21.4Q37.7-20.65 36.38-20.65 35.05-20.65 35.05-21.2L35.05-21.2Q35.05-21.55 36.52-21.6 38-21.65 38.65-21.95L38.65-21.95Q40.55-22.95 40.55-24.9L40.55-24.9Q40.55-25.9 40-27L40-27Q38.4-29.85 32.25-29.85L32.25-29.85Q28.7-29.85 25.15-28.78 21.6-27.7 19.2-25.48 16.8-23.25 16.8-21.35L16.8-21.35Q16.8-18.45 22.55-17.1L22.55-17.1 28.45-16Q32-15.35 33.75-14.2L33.75-14.2Q36.05-12.8 36.05-10.2L36.05-10.2Q36.05-9.15 35.7-7.95L35.7-7.95Q34.1-2.55 27.45 0.3L27.45 0.3Q21.9 2.75 14.35 2.75L14.35 2.75Q12.2 2.75 10.6 2.55L10.6 2.55Q12.2 3.45 14.8 4.1L14.8 4.1Q15 4.15 15 4.3L15 4.3Q15 4.75 13.95 4.75L13.95 4.75Q11.9 4.75 8.85 2.3L8.85 2.3Q4.7 1.65 2.65 0L2.65 0Q1.35-1.05 0.25-3.1-0.85-5.15-0.85-6.8-0.85-8.45-0.2-9.55L-0.2-9.55Q1.3-12.2 3.6-12.2L3.6-12.2Q5.35-12.2 5.65-9.25L5.65-9.25Q6.35-3.55 6.6-2.75L6.6-2.75Q7.35-0.3 9.15 1.4L9.15 1.4Q11.25 1.85 13.7 1.85L13.7 1.85Q19.1 1.85 24.3-0.3 29.5-2.45 31.8-6.4L31.8-6.4Q32.75-7.95 32.75-9.15L32.75-9.15Q32.75-11.5 28.6-12.8L28.6-12.8 19.8-14.8Q17.1-15.45 15.48-16.95 13.85-18.45 13.85-20.4L13.85-20.4Q13.85-23.4 17.6-26.4L17.6-26.4Q20.45-28.7 24.58-29.98 28.7-31.25 32.68-31.25 36.65-31.25 39.25-30.1L39.25-30.1Q42.6-28.55 42.6-25.58 42.6-22.6 39.55-21.4ZM7.35 0.9L7.35 0.9Q4.45-2.3 3.65-7.85L3.65-7.85Q3.2-11 2.8-11 2.4-11 2.05-10.78 1.7-10.55 1.35-9.8 1-9.05 1-7.85L1-7.85Q1-4 3.7-1.25L3.7-1.25Q5.05 0.15 7.35 0.9ZM73.1-19.8L73.1-19.8 72.75-21.15Q72.75-21.55 73.15-21.55L73.15-21.55Q73.3-21.55 73.55-21.4L73.55-21.4Q74.7-20.55 74.7-19.15 74.7-17.75 72.9-16.43 71.1-15.1 68.35-15.1L68.35-15.1Q67.5-15.1 66.65-15.25L66.65-15.25Q63.2-8.9 58.25-3.55L58.25-3.55Q51.65 3.45 46.25 3.45L46.25 3.45Q38.45 3.45 38.45-5.75L38.45-5.75Q38.45-13.35 42.5-18L42.5-18Q45.9-22 50.3-22L50.3-22Q51.45-22 52.65-21.6L52.65-21.6Q55.6-20.45 55.6-16.73 55.6-13 52.55-8.95 49.5-4.9 46.3-4.9L46.3-4.9Q42.7-4.9 42.7-8.8L42.7-8.8Q42.7-9.9 43.17-11.1 43.65-12.3 44.25-12.3L44.25-12.3Q44.7-12.3 44.7-11.85L44.7-11.85Q44.7-11.6 44.25-10.6 43.8-9.6 43.8-8.83 43.8-8.05 44.62-7.38 45.45-6.7 46.35-6.7L46.35-6.7Q49.3-6.7 51.82-10.33 54.35-13.95 54.35-17.4L54.35-17.4Q54.35-20.05 52.45-20.9L52.45-20.9Q51.8-21.15 51.1-21.15L51.1-21.15Q47.55-21.15 44-16.25L44-16.25Q40.55-11.3 40.55-5.4L40.55-5.4Q40.55-2.15 41.95-0.1L41.95-0.1Q43.4 2 45.95 2L45.95 2Q52.55 2 63.15-15.95L63.15-15.95Q57.65-17.6 57.65-22.45L57.65-22.45Q57.65-28.9 64.2-32.75L64.2-32.75Q68.35-35.15 72.25-35.15L72.25-35.15Q75.3-35.15 77.75-34.15L77.75-34.15Q81.2-32.8 81.2-30.05L81.2-30.05Q81.2-29.45 80.92-28.9 80.65-28.35 80.35-28.35L80.35-28.35Q79.7-29 78.8-29L78.8-29Q74.55-29 67.15-16.35L67.15-16.35Q67.55-16.3 68-16.3L68-16.3Q69.7-16.3 71.4-17.3 73.1-18.3 73.1-19.8ZM73.45-33.75Q70.9-33.75 67.57-32.27 64.25-30.8 62.27-27.95 60.3-25.1 60.3-21.5 60.3-17.9 64-17.2L64-17.2Q66.75-21.7 71.1-26.18 75.45-30.65 78.35-30.65L78.35-30.65Q79.1-30.65 79.65-30.3L79.65-30.3Q79.6-31.7 77.7-32.75L77.7-32.75Q76-33.75 73.45-33.75Z" opacity="1" transform="matrix(1,0,0,1,0,0)" fill="#3498db" class="wordmark-text-0" data-fill-palette-color="primary" id="text-0"></path></svg></g></svg></g></svg></g></svg></g></svg></g></svg></g></svg></g><path d="M238.483 58.168L238.483 10.062 11.407 10.062 11.407 237.138 238.483 237.138 238.483 189.032 227.764 189.032 227.764 226.419 22.127 226.419 22.127 20.781 227.764 20.781 227.764 58.168Z" fill="#3498db" stroke="transparent" data-fill-palette-color="tertiary"></path></svg></g><defs></defs></svg><rect width="395.52" height="247.2" fill="none" stroke="none" visibility="hidden"></rect></g></svg></g></svg>